<svg id="Capa_1" enable-background="new 0 0 512 512" height="512" viewBox="0 0 512 512" width="512" xmlns="http://www.w3.org/2000/svg"><g><g><path d="m306.012 191.389c1.919 0 3.839-.732 5.303-2.196 2.929-2.93 2.929-7.678 0-10.606-14.753-14.755-34.398-22.88-55.315-22.88s-40.562 8.125-55.315 22.88c-2.929 2.929-2.929 7.677 0 10.606 2.929 2.928 7.678 2.929 10.606-.001 11.921-11.921 27.798-18.485 44.709-18.485s32.788 6.564 44.709 18.485c1.464 1.464 3.384 2.197 5.303 2.197z"/><path d="m183.267 163.575c40.105-40.105 105.36-40.105 145.466 0 1.464 1.464 3.384 2.196 5.303 2.196s3.839-.732 5.303-2.196c2.929-2.93 2.929-7.678 0-10.607-45.953-45.953-120.726-45.953-166.679 0-2.929 2.93-2.929 7.678 0 10.607 2.929 2.927 7.678 2.929 10.607 0z"/><path d="m279.262 218.14c1.919 0 3.839-.732 5.303-2.196 2.929-2.929 2.929-7.678 0-10.606-7.63-7.631-17.774-11.833-28.565-11.833s-20.935 4.202-28.565 11.833c-2.929 2.929-2.929 7.678 0 10.606s7.678 2.929 10.606-.001c4.797-4.797 11.175-7.438 17.958-7.438s13.162 2.642 17.958 7.438c1.466 1.464 3.385 2.197 5.305 2.197z"/><circle cx="256" cy="238.894" r="7.5"/><path d="m47.139 348.261c0 16.09 13.09 29.181 29.18 29.181s29.181-13.091 29.181-29.181-13.09-29.181-29.181-29.181c-16.09 0-29.18 13.091-29.18 29.181zm43.361 0c0 7.819-6.361 14.181-14.181 14.181-7.819 0-14.18-6.361-14.18-14.181s6.361-14.181 14.18-14.181c7.82 0 14.181 6.361 14.181 14.181z"/><path d="m132 337.509c-4.142 0-7.5 3.357-7.5 7.5s3.358 7.5 7.5 7.5h14.23c4.142 0 7.5-3.357 7.5-7.5s-3.358-7.5-7.5-7.5z"/><path d="m177 337.509c-4.142 0-7.5 3.357-7.5 7.5s3.358 7.5 7.5 7.5h14.23c4.142 0 7.5-3.357 7.5-7.5s-3.358-7.5-7.5-7.5z"/><path d="m222 337.509c-4.142 0-7.5 3.357-7.5 7.5s3.358 7.5 7.5 7.5h14.23c4.142 0 7.5-3.357 7.5-7.5s-3.358-7.5-7.5-7.5z"/><path d="m267 337.509c-4.142 0-7.5 3.357-7.5 7.5s3.358 7.5 7.5 7.5h14.23c4.142 0 7.5-3.357 7.5-7.5s-3.358-7.5-7.5-7.5z"/><path d="m504.5 429.125h-28.178v-14.827h6.744c12.407 0 22.5-10.094 22.5-22.5v-87.074c0-12.406-10.093-22.5-22.5-22.5h-37.836v-31.183c0-3.323-1.556-6.285-3.973-8.21v-153.929c0-11.595-9.433-21.027-21.027-21.027s-21.027 9.433-21.027 21.027v153.929c-2.417 1.925-3.973 4.887-3.973 8.21v31.183h-43.23c-4.142 0-7.5 3.357-7.5 7.5s3.358 7.5 7.5 7.5h131.065c4.136 0 7.5 3.364 7.5 7.5v8.847h-126.046c-19.128 0-34.691 15.563-34.691 34.69s15.563 34.69 34.691 34.69h126.047v8.847c0 4.136-3.364 7.5-7.5 7.5h-288.066c-4.142 0-7.5 3.357-7.5 7.5s3.358 7.5 7.5 7.5h176.348v14.827h-230.696v-14.827h19.348c4.142 0 7.5-3.357 7.5-7.5s-3.358-7.5-7.5-7.5h-131.065c-4.136 0-7.5-3.364-7.5-7.5v-87.074c0-4.136 3.364-7.5 7.5-7.5h287.065c4.142 0 7.5-3.357 7.5-7.5s-3.358-7.5-7.5-7.5h-199.23v-31.183c0-3.323-1.556-6.285-3.973-8.21v-93.831c0-4.143-3.358-7.5-7.5-7.5s-7.5 3.357-7.5 7.5v91.541h-12.054v-151.639c0-3.323 2.704-6.027 6.027-6.027s6.027 2.704 6.027 6.027v24.098c0 4.143 3.358 7.5 7.5 7.5s7.5-3.357 7.5-7.5v-24.098c0-11.595-9.433-21.027-21.027-21.027s-21.027 9.433-21.027 21.027v153.929c-2.417 1.925-3.973 4.887-3.973 8.21v31.183h-37.835c-12.407 0-22.5 10.094-22.5 22.5v87.074c0 12.406 10.093 22.5 22.5 22.5h6.744v14.827h-28.179c-4.142 0-7.5 3.357-7.5 7.5s3.358 7.5 7.5 7.5h497c4.142 0 7.5-3.357 7.5-7.5s-3.358-7.5-7.5-7.5zm-90.297-340.223c0-3.323 2.704-6.027 6.027-6.027s6.027 2.704 6.027 6.027v151.639h-12.055v-151.639zm16.027 193.322h-20v-26.683h20zm-65.711 85.727c-10.857 0-19.691-8.833-19.691-19.69s8.833-19.69 19.691-19.69h126.047v39.381h-126.047zm-282.749-112.41h20v26.683h-20zm43.882 173.584h-74.974v-14.827h74.974zm335.67 0h-74.974v-14.827h74.974z"/><circle cx="382.5" cy="347.5" r="7.5"/><circle cx="416.5" cy="347.5" r="7.5"/><circle cx="450.5" cy="347.5" r="7.5"/></g></g></svg>