<?xml version="1.0" encoding="UTF-8"?>
<!DOCTYPE svg PUBLIC "-//W3C//DTD SVG 1.1//EN" "http://www.w3.org/Graphics/SVG/1.1/DTD/svg11.dtd">
<!-- Creator: CorelDRAW 2019 (64-Bit Evaluation Version) -->
<svg xmlns="http://www.w3.org/2000/svg" xml:space="preserve" width="5.30662in" height="11.1096in" version="1.1" style="shape-rendering:geometricPrecision; text-rendering:geometricPrecision; image-rendering:optimizeQuality; fill-rule:evenodd; clip-rule:evenodd"
viewBox="0 0 5306.2 11108.69"
 xmlns:xlink="http://www.w3.org/1999/xlink">
 <defs>
  <style type="text/css">
   <![CDATA[
    .fil3 {fill:#FEFEFE}
    .fil1 {fill:#373435}
    .fil0 {fill:#FCB642}
    .fil2 {fill:black}
   ]]>
  </style>
 </defs>
 <g id="Layer_x0020_1">
  <metadata id="CorelCorpID_0Corel-Layer"/>
  <g id="_2554860747568">
   <path class="fil0" d="M393.24 5956.87c51.78,88.73 112.12,155.34 156.49,226.54 -68.4,102.65 -116.23,149.16 -140.92,349.78 -189.95,-205.89 -125.01,-415.39 -15.57,-576.31zm1515.11 -24.25c-251.35,1276.66 2873.04,807.48 3397.85,2884.81 -43.69,-1928.57 -2559.17,-1814.18 -3128.11,-2649.85 -254.7,-374.13 16.62,-799.59 500.5,-855.8 395.49,-45.95 775.34,36.9 1248.54,-296.64 176.49,-124.4 314.02,-286.98 390.27,-484.61 -215.61,65.88 -698.76,175.77 -1308.58,-51.37 261.26,-38.32 804.22,-27.99 1263.31,-274.5 570.9,-306.56 825.88,-1173.91 845.63,-1774.66 -184.14,436.34 -660.84,1164.57 -1041.72,1373.05 -101.85,55.75 -233.27,86.88 -339.84,95.93 134.87,-150.22 278.88,-301.28 500.37,-736.87 204.81,-389.7 483.94,-1395.64 102.68,-2356.63 -0.78,891.33 -475.05,2670.1 -1503.25,2706.17 484.89,-346.71 884.34,-653.12 985.23,-1690.82 -12.16,-552.06 -181.01,-1252.38 -671.24,-1820.81 277.76,599.09 333.93,1613.69 210.89,2136.99 -72.71,-225.78 -377.87,-811.66 -608.66,-1063.67 359.47,975.18 75.52,2363.7 -876.5,2771.46 85.09,-326.76 81.3,-682.24 68.57,-1157.84 233.41,87.81 -29.6,587.39 95.59,768.39 97.8,141.47 205.93,62.75 274.01,-52.35 -188.25,122.25 -267.77,51.07 -211.88,-236.45 94.48,-329.7 59.03,-616.28 -62.19,-750.88 32,-8.33 128.09,121.27 168.93,176.42 -46.21,-179.08 -103.2,-327 -175.4,-430.98 49.26,20.78 76.8,36.6 139.75,103.71 -46.59,-171.29 -127.28,-295.39 -250.9,-360.07 260.94,-143.29 413.19,-362.5 500.78,-629.21 -289.11,247.36 -542.03,412.79 -820.38,500.12 232.15,-172.81 374.08,-311.08 520.46,-559.57 -60.15,-7.35 -85.15,12.44 -138.95,40.45 196.21,-200.46 325.01,-485.9 392.4,-848.72 -247.05,245.4 -494.11,490.79 -741.16,736.19 -198.57,199.74 -397.14,399.5 -595.71,599.24 379.12,-418.4 458.37,-630.84 399.1,-1026.42 -113.88,280.04 -258.68,561.59 -472.97,846.43 -117.46,156.15 -180.56,221.23 -328.66,341.31 -260.83,211.44 -209.34,266.05 -341.82,700.41 40.61,-2.69 194.87,-2.24 230.69,93.91 71.74,6.47 105.52,44.58 83.15,128.34 257.03,-19.24 494.37,-158.48 720.78,-297.43 160.4,731.99 -951.11,1116.83 -1178.67,1694.49 -251.91,508.59 -146.37,1053.13 8.02,1339.41 -98.08,459.45 -126.16,790.86 222.12,1052.96 150.05,695.37 755.83,1177.21 1449.45,1377.7 -512.72,-372.62 -1231.79,-884.72 -694,-1477.28 -565.45,1145.86 1502.43,1434.1 1834.08,1820.94 -118.83,-432.86 -1714.76,-728.42 -1614.94,-1402.47 105.65,250.48 340.28,483.23 752.13,654.21 526.36,218.53 1782.8,904.86 1783.27,1563.08 0.31,440.9 -110.62,732.32 -452.94,1043.79 -275.71,250.86 -652.35,416.08 -1063.22,416.73 -857.4,84.73 -1800.27,-758.85 -1456.68,-1887.41 -391.54,911.15 213.1,1825.95 958.08,2205.67 896.73,457.06 2132.36,-17.49 2573.34,-885.12 388.82,-765 -192.02,-1531.12 -811.29,-1956.67 -682.82,-469.23 -1541.72,-712.63 -1920.01,-1085.75 -338.49,-333.86 -330.56,-851.59 2.7,-1138.62 -79.53,158.08 -121.1,315.05 -128.6,461.35 -43.33,845.45 1367.22,1103.65 2028.69,1447.38 113.37,58.91 1679.25,834.45 1007.87,2110.7 978.59,-972.93 132.16,-1781.29 -806.91,-2245.48 -411.13,-203.23 -1291.81,-457.22 -1749.09,-827.88 -369.9,-299.83 -311.75,-480.45 -164.96,-878.87zm-610.17 -112.41c-171.66,578.42 -838.06,779.17 -344.49,1431.67 -298.42,-756.53 302.09,-577.43 344.49,-1431.67z"/>
   <path class="fil1" d="M607.87 2582.94c47.75,-145.09 137.52,-191.33 310.14,-190.06 -81.78,132.81 -179.52,214.27 -310.14,190.06z"/>
   <path class="fil2" d="M295.23 2604.95c-121.57,94.09 -165.69,321.3 -7.66,465.62 33.28,-104.59 53.88,-199.2 126.38,-262.68l-21.41 151.4c63.52,-48.57 139.02,-108.07 216.63,-132.11 21.66,-73.84 -4.21,-122.08 -83.06,-128.34 -17.74,-62.46 -126.82,-108.25 -230.88,-93.89z"/>
   <path class="fil3" d="M676.09 2468.16c17.46,-6.43 39.25,13.24 48.67,43.92 9.42,30.69 2.91,60.77 -14.56,67.2 -17.46,6.43 -39.25,-13.24 -48.68,-43.92 -9.42,-30.69 -2.9,-60.77 14.56,-67.2z"/>
  </g>
 </g>
</svg>
